<svg xmlns="http://www.w3.org/2000/svg" xmlns:xlink="http://www.w3.org/1999/xlink" viewBox="0 0 19.82 90.55"><defs><style>.cls-1{fill:url(#linear-gradient);}.cls-2{fill:url(#linear-gradient-2);}.cls-3{fill:url(#linear-gradient-3);}.cls-4{fill:url(#linear-gradient-4);}.cls-5{fill:url(#linear-gradient-5);}.cls-6{fill:url(#linear-gradient-6);}.cls-7{fill:url(#linear-gradient-7);}.cls-8{fill:url(#linear-gradient-8);}.cls-9{fill:url(#linear-gradient-9);}.cls-10{fill:url(#linear-gradient-10);}.cls-11{fill:url(#linear-gradient-11);}.cls-12{fill:url(#linear-gradient-12);}.cls-13{fill:#fff;opacity:0.6;}.cls-14{opacity:0.4;fill:url(#linear-gradient-13);}.cls-15{opacity:0.8;fill:url(#linear-gradient-14);}.cls-16{fill:none;stroke:#000;stroke-miterlimit:10;stroke-width:0.5px;}.cls-17{font-size:2.38px;font-family:Montserrat-Bold, Montserrat;font-weight:700;}</style><linearGradient id="linear-gradient" x1="326.1" y1="-376.47" x2="326.1" y2="-367.65" gradientTransform="translate(322.08 427.89) rotate(-80.58)" gradientUnits="userSpaceOnUse"><stop offset="0" stop-color="#fff"/><stop offset="0.18" stop-color="#ececec"/><stop offset="0.33" stop-color="#e0e0e0"/><stop offset="0.41" stop-color="#d6d6d6"/><stop offset="0.81" stop-color="#a4a4a4"/><stop offset="1" stop-color="#919191"/></linearGradient><linearGradient id="linear-gradient-2" x1="-85.93" y1="-181.45" x2="-38.62" y2="-197.3" gradientTransform="translate(161.23 172.45) rotate(-35.58)" gradientUnits="userSpaceOnUse"><stop offset="0" stop-color="#ababab"/><stop offset="0.06" stop-color="#aeaeae"/><stop offset="0.66" stop-color="#cbcbcb"/><stop offset="1" stop-color="#d6d6d6"/></linearGradient><linearGradient id="linear-gradient-3" x1="-45.95" y1="-206.73" x2="-30.19" y2="-184.24" gradientTransform="translate(-101.67 204.79) rotate(45)" gradientUnits="userSpaceOnUse"><stop offset="0" stop-color="#c7c7c7"/><stop offset="0.24" stop-color="#949494"/><stop offset="0.77" stop-color="#2a2a2a"/><stop offset="1"/></linearGradient><linearGradient id="linear-gradient-4" x1="337.8" y1="-375.73" x2="337.8" y2="-368.33" gradientTransform="translate(-327.44 405.78)" gradientUnits="userSpaceOnUse"><stop offset="0" stop-color="#fafafa"/><stop offset="1" stop-color="#d9d9d9"/></linearGradient><linearGradient id="linear-gradient-5" x1="324.83" y1="-372.69" x2="324.83" y2="-371.37" gradientTransform="translate(322.08 427.89) rotate(-80.58)" gradientUnits="userSpaceOnUse"><stop offset="0" stop-color="#999"/><stop offset="0.19" stop-color="#c4c4c4"/><stop offset="0.23" stop-color="#cdcdcd"/><stop offset="0.3" stop-color="#e4e4e4"/><stop offset="0.36" stop-color="#fff"/><stop offset="0.44" stop-color="#fbfbfb"/><stop offset="0.53" stop-color="#efefef"/><stop offset="0.57" stop-color="#e6e6e6"/><stop offset="0.75" stop-color="#b0b0b0"/><stop offset="0.96" stop-color="#fff"/></linearGradient><linearGradient id="linear-gradient-6" x1="335.75" y1="-372.69" x2="335.75" y2="-371.37" gradientTransform="translate(322.08 427.89) rotate(-80.58)" gradientUnits="userSpaceOnUse"><stop offset="0" stop-color="#ffc000"/><stop offset="0.05" stop-color="#fac219"/><stop offset="0.14" stop-color="#edc858"/><stop offset="0.28" stop-color="#d9d2bd"/><stop offset="0.31" stop-color="#d4d4d4"/><stop offset="0.37" stop-color="#d8d8d8"/><stop offset="0.42" stop-color="#e3e3e3"/><stop offset="0.47" stop-color="#f6f6f6"/><stop offset="0.49" stop-color="#fff"/><stop offset="0.56" stop-color="#fbfbfb"/><stop offset="0.62" stop-color="#efefef"/><stop offset="0.65" stop-color="#e6e6e6"/><stop offset="0.69" stop-color="#ffcf40"/><stop offset="0.74" stop-color="#f6c53e"/><stop offset="0.82" stop-color="#dea938"/><stop offset="0.89" stop-color="#c79032"/></linearGradient><linearGradient id="linear-gradient-7" x1="396.96" y1="-356.07" x2="396.96" y2="-356.07" gradientTransform="translate(290.66 519.63) rotate(-80.58)" gradientUnits="userSpaceOnUse"><stop offset="0" stop-color="#d11d10"/><stop offset="0.22" stop-color="#dd1f11"/><stop offset="0.52" stop-color="#e82011"/><stop offset="0.57" stop-color="#e21f10"/><stop offset="0.64" stop-color="#d01c0f"/><stop offset="0.71" stop-color="#b3180d"/><stop offset="0.8" stop-color="#8b120a"/><stop offset="0.9" stop-color="#570a05"/><stop offset="0.99" stop-color="#190100"/><stop offset="1" stop-color="#140000"/></linearGradient><linearGradient id="linear-gradient-8" x1="396.96" y1="-356.1" x2="396.96" y2="-356.04" xlink:href="#linear-gradient-7"/><linearGradient id="linear-gradient-9" x1="396.96" y1="-356.19" x2="396.96" y2="-355.94" gradientTransform="translate(-392.59 425.81)" xlink:href="#linear-gradient-7"/><linearGradient id="linear-gradient-10" x1="-67.82" y1="-189.2" x2="-67.82" y2="-160.4" gradientTransform="translate(161.23 172.45) rotate(-35.58)" xlink:href="#linear-gradient-7"/><linearGradient id="linear-gradient-11" x1="-82.75" y1="-163.71" x2="-74.95" y2="-163.71" gradientTransform="translate(161.23 172.45) rotate(-35.58)" gradientUnits="userSpaceOnUse"><stop offset="0.2" stop-color="#050000"/><stop offset="0.69" stop-color="#030000"/><stop offset="0.8" stop-color="#050202"/><stop offset="0.85" stop-color="#0c0707"/><stop offset="0.88" stop-color="#191111"/><stop offset="0.92" stop-color="#2b1f1f"/><stop offset="0.94" stop-color="#423131"/><stop offset="0.97" stop-color="#5f4747"/><stop offset="0.99" stop-color="#816161"/><stop offset="1" stop-color="#967171"/></linearGradient><linearGradient id="linear-gradient-12" x1="285.5" y1="-372.99" x2="285.5" y2="-370.92" gradientTransform="translate(322.08 427.89) rotate(-80.58)" gradientUnits="userSpaceOnUse"><stop offset="0.11" stop-color="#260000"/><stop offset="0.12" stop-color="#4e2f2f"/><stop offset="0.15" stop-color="#836d6d"/><stop offset="0.17" stop-color="#afa1a1"/><stop offset="0.19" stop-color="#d2caca"/><stop offset="0.21" stop-color="#ebe7e7"/><stop offset="0.23" stop-color="#faf9f9"/><stop offset="0.24" stop-color="#fff"/><stop offset="0.26" stop-color="#fbf8f8"/><stop offset="0.29" stop-color="#eee5e5"/><stop offset="0.33" stop-color="#dac5c5"/><stop offset="0.37" stop-color="#be9a9a"/><stop offset="0.37" stop-color="#b89090"/><stop offset="0.39" stop-color="#b68f8f"/><stop offset="0.4" stop-color="#af8989"/><stop offset="0.4" stop-color="#a48080"/><stop offset="0.41" stop-color="#937272"/><stop offset="0.41" stop-color="#7d6161"/><stop offset="0.41" stop-color="#614b4b"/><stop offset="0.42" stop-color="#413131"/><stop offset="0.42" stop-color="#1d1414"/><stop offset="0.42" stop-color="#030000"/><stop offset="0.59" stop-color="#050404"/><stop offset="0.62" stop-color="#050505"/><stop offset="0.63" stop-color="#1b0404"/><stop offset="0.67" stop-color="#460101"/><stop offset="0.69" stop-color="#570000"/><stop offset="0.7" stop-color="#530000"/><stop offset="0.71" stop-color="#410000"/><stop offset="0.73" stop-color="#350000"/><stop offset="0.75" stop-color="#2d0000"/><stop offset="0.8" stop-color="#2b0000"/><stop offset="0.83" stop-color="#2b0000"/><stop offset="0.99" stop-color="#2b0000"/></linearGradient><linearGradient id="linear-gradient-13" x1="280.77" y1="-370.03" x2="371.39" y2="-370.03" gradientTransform="translate(322.08 427.89) rotate(-80.58)" gradientUnits="userSpaceOnUse"><stop offset="0.26" stop-color="#fff"/><stop offset="1" stop-color="#fff"/></linearGradient><linearGradient id="linear-gradient-14" x1="385.43" y1="-356.06" x2="386.84" y2="-356.06" gradientTransform="translate(290.66 519.63) rotate(-80.58)" gradientUnits="userSpaceOnUse"><stop offset="0.27" stop-color="#999"/><stop offset="0.34" stop-color="#b6b6b6"/><stop offset="0.41" stop-color="#ccc"/><stop offset="0.48" stop-color="#d9d9d9"/><stop offset="0.54" stop-color="#dedede"/><stop offset="0.6" stop-color="#dadada"/><stop offset="0.65" stop-color="#cecece"/><stop offset="0.71" stop-color="#b9b9b9"/><stop offset="0.77" stop-color="#9d9d9d"/><stop offset="0.77" stop-color="#999"/></linearGradient></defs><g id="Layer_2" data-name="Layer 2"><g id="Portrait"><path class="cls-1" d="M10.9,3.4.65,65.16c-.26,1.58,1.28,4.6,1.41,5.32s-2,17.91-2,17.91c-.16,1,.07,1.83.89,2,1,.16,1.35-.59,1.51-1.56,0,0,3.52-17.38,3.94-18.14s2.7-2.47,3-4.05L19.6,4.84A4.19,4.19,0,0,0,15.89.25,4.18,4.18,0,0,0,10.9,3.4Z"/><path class="cls-2" d="M19.77,4.87,9.53,66.63A7.11,7.11,0,0,1,7.34,70a4.4,4.4,0,0,0-.79.78c-.3.54-2.63,11.09-4.07,18.06C2.26,89.86,2,90.71.91,90.53c-.91-.15-1-1.06-.86-2.14C.9,81.38,2,71.11,1.88,70.51a4.5,4.5,0,0,0-.5-1,9,9,0,0,1-.91-4.38L10.72,3.37a4.38,4.38,0,0,1,5.2-3.3A4.36,4.36,0,0,1,19.77,4.87ZM.83,65.19a8.74,8.74,0,0,0,.86,4.14,3.89,3.89,0,0,1,.54,1.12c.16.85-1.73,16.17-1.92,18-.08.88-.06,1.62.66,1.74.88.14,1-.58,1.21-1.43.48-1.81,3.63-17.42,4.05-18.18a4.45,4.45,0,0,1,.88-.88,7,7,0,0,0,2.07-3.12L19.42,4.82A4,4,0,0,0,15.86.42a4,4,0,0,0-4.79,3Z"/><rect class="cls-3" x="-19.4" y="29.86" width="60.21" height="7.4" transform="translate(-24.15 38.63) rotate(-80.58)"/><rect class="cls-4" x="-19.77" y="30.06" width="60.27" height="7.4" transform="translate(-24.64 38.45) rotate(-80.58)"/><path class="cls-5" d="M14.14,11c.36.06.61.32.57.58L3.06,81.78c0,.26-.37.42-.73.36h0c-.35-.06-.61-.31-.57-.57L13.42,11.33c0-.26.36-.42.72-.36Z"/><path class="cls-6" d="M14.56,4.44,4.12,67.37l1.29.22L15.85,4.65c.05-.25-.21-.51-.57-.57S14.6,4.18,14.56,4.44Z"/><path class="cls-7" d="M1.07,89.63l6.6-39.77Z"/><polygon class="cls-8" points="7.7 49.87 1.1 89.63 1.04 89.62 7.64 49.86 7.7 49.87"/><rect class="cls-9" x="-15.79" y="69.62" width="40.31" height="0.25" transform="translate(-65.15 62.64) rotate(-80.58)"/><path class="cls-10" d="M7.83,49.83,1.21,89.71l-.3,0L7.52,49.78ZM1.17,89.59,7.75,49.93l-.19,0L1,89.55Z"/><path class="cls-11" d="M3.67,81.61,2,88.9c-.24.84-.21,1.5-1,1.37s-.56-.75-.49-1.62l.9-7.42c.16-1,.7-.88,1.23-.79S3.83,80.64,3.67,81.61ZM.73,88.69C.65,89.62.38,89.92,1,90s.5-.5.7-1.17l1.69-7.29c.11-.61-.07-.76-.84-.89s-.85,0-1,.59Z"/><path class="cls-12" d="M2.6,80.56c.71.12,1.07.27.95,1l-1.7,7.29c-.2.75-.13,1.39-.84,1.27H1c-.72-.12-.52-.72-.4-1.48l.9-7.42c.13-.76.37-.81,1.09-.69Z"/><path class="cls-13" d="M.79,88.8s2.13-17.18,2.06-18-1-3.65-.76-5.24L12.4,3.38a4.29,4.29,0,0,1,1.91-3,3.9,3.9,0,0,0-2.89,3.12L1.17,65.24c-.26,1.58,1.14,4.58,1.25,5.3S.52,88.47.52,88.47c-.08.45-.15,1.25,0,1.48C.44,89.61.72,89.24.79,88.8Z"/><path class="cls-14" d="M18,4.31,7.72,66.47c-.26,1.59-2,3.54-2.31,4.19S1.55,88.93,1.55,88.93c-.07.44,0,.87-.22,1.14.46-.25.55-.77.65-1.36,0,0,3.52-17.38,3.92-18.14s2.52-2.5,2.78-4.08L18.93,4.73A3.94,3.94,0,0,0,17.22.85,4.34,4.34,0,0,1,18,4.31Z"/><path class="cls-15" d="M1.05,79.69c0,.29-.06.59-.1.88l3.17.53c.06-.29.12-.58.19-.87Z"/><line class="cls-16" x1="6.49" y1="63.66" x2="2.51" y2="63"/><line class="cls-16" x1="7.39" y1="58.22" x2="3.41" y2="57.56"/><line class="cls-16" x1="8.29" y1="52.79" x2="4.31" y2="52.13"/><line class="cls-16" x1="9.19" y1="47.35" x2="5.22" y2="46.69"/><line class="cls-16" x1="10.1" y1="41.92" x2="6.12" y2="41.26"/><line class="cls-16" x1="11" y1="36.48" x2="7.02" y2="35.82"/><line class="cls-16" x1="11.9" y1="31.04" x2="7.92" y2="30.38"/><line class="cls-16" x1="12.8" y1="25.61" x2="8.82" y2="24.95"/><line class="cls-16" x1="13.7" y1="20.17" x2="9.73" y2="19.51"/><line class="cls-16" x1="14.61" y1="14.73" x2="10.63" y2="14.07"/><line class="cls-16" x1="15.51" y1="9.3" x2="11.53" y2="8.64"/><text class="cls-17" transform="translate(2.67 62.49) rotate(9.42)">00</text><text class="cls-17" transform="translate(3.57 57.08) rotate(9.42)">10</text><text class="cls-17" transform="translate(4.46 51.66) rotate(9.42)">20</text><text class="cls-17" transform="translate(5.36 46.25) rotate(9.42)">30</text><text class="cls-17" transform="translate(6.27 40.76) rotate(9.42)">40</text><text class="cls-17" transform="translate(7.18 35.27) rotate(9.42)">50</text><text class="cls-17" transform="translate(8.08 29.86) rotate(9.42)">60</text><text class="cls-17" transform="translate(8.98 24.44) rotate(9.42)">70</text><text class="cls-17" transform="translate(9.88 19.03) rotate(9.42)">80</text><text class="cls-17" transform="translate(10.78 13.61) rotate(9.42)">90</text><text class="cls-17" transform="translate(11.68 8.19) rotate(9.42)">100</text></g></g></svg>